<svg width="1480" height="1000" viewBox="0 0 1480 1000" version="1.1" id="svg1" xml:space="preserve" xmlns="http://www.w3.org/2000/svg">
  <defs id="defs1">
    <style id="style1">
      .cls-1{fill:#f6f8ea;fill-rule:evenodd}
    </style>
  </defs>
  <g id="g1" transform="matrix(1 0 0 1.00773 0 -12.485)" display="inline">
    <path id="rect1" d="M246.312 109.063h732.807v142.665H246.312Z" display="inline" fill="#ff5f71" stroke-width="24.918" stroke-linecap="square"/>
    <path id="rect3" d="M246.312 241.063h732.807v146.105H246.312Z" display="inline" fill="#ffa068" stroke-width="25.217" stroke-linecap="square"/>
    <path id="rect4" d="M246.312 373.063h732.807v146.105H246.312Z" display="inline" fill="#ffeb6a" stroke-width="25.217" stroke-linecap="square"/>
    <path id="rect5" d="M246.312 505.063h732.807v144.385H246.312Z" display="inline" fill="#c2f55a" stroke-width="25.068" stroke-linecap="square"/>
    <path id="rect6" d="M246.312 637.063h732.807l-92 147.824H246.312Z" display="inline" fill="#39d5ff" stroke-width="25.365" stroke-linecap="square"/>
    <path id="rect7" d="M246.312 769.063h640.807l92 132.347H246.312Z" display="inline" fill="#8e4ed2" stroke-width="24" stroke-linecap="square"/>
  </g>
  <path id="path7" d="M968.035 107.363c-3.398.102-6.912.41-10.54.951-58.057 8.666-69.322 51.99-82.32 74.52-12.997 22.53-36.394 33.795-53.724 23.396-17.33-10.398-34.66-21.664-34.66-21.664s-12.131 82.32 59.79 81.454c71.92-.867 98.782-63.256 98.782-63.256l2.6 63.256s-38.126 10.397-34.66 41.591c3.466 31.195 20.795 38.127 20.795 38.127l-1.733 79.719-6.931 46.791s-39.861-14.731-78.854-3.467c-38.993 11.265-58.922 27.729-58.922 27.729s-23.395-36.394-84.05-27.729c-60.656 8.665-64.989 82.319-64.989 95.317 0 12.997 4.332 69.32-45.926 72.787-50.257 3.466-68.455-15.598-68.455-15.598s-2.598 76.254 56.324 90.984c58.923 14.731 98.782-.866 118.711-34.66 19.93-33.794 17.331-97.915 25.997-106.58 8.665-8.665 21.662-.867 21.662-.867s-1.733 32.928.867 58.057c2.6 25.128 10.398 48.523 10.398 48.523l-59.789 58.057s0 50.257-8.666 84.05c-8.665 33.794-15.597 64.124-15.597 64.124h74.521l-12.133-35.528 32.063-78.851 29.46-13.866 123.046 131.71 66.72-3.465-107.447-120.446s20.797-24.263 30.328-40.726c9.532-16.464 15.596-33.793 15.596-33.793s54.592 14.731 102.25 18.197c47.658 3.466 98.781.865 98.781.865s12.132 45.06 11.266 83.186c-.867 38.126 2.6 91.85 2.6 91.85h71.052l-22.53-38.128 5.2-42.459s43.325 1.735 97.049-48.523c53.723-50.258 47.658-60.656 47.658-60.656s-33.794-31.194-52.857-39.86c-19.064-8.665-44.192-16.462-44.192-16.462s12.132-35.528 3.467-75.387c-8.665-39.86-40.726-97.915-39.86-114.38.867-16.463 7.798-46.792 7.798-46.792s4.333 29.462 25.996 45.926c21.662 16.463 25.996 17.33 25.996 17.33l14.73 46.79 59.79-13.862-6.067-120.446s82.318-74.52 76.253-99.648c-19.064-1.733-106.581 43.324-106.581 43.324s-42.459-33.792-103.98-30.326c-61.523 3.466-128.245 80.584-128.245 80.584s-2.599-18.196-4.332-28.594c-1.733-10.398-14.73-33.795-14.73-33.795s3.466-79.717 0-100.514c-3.466-20.796-19.93-28.595-19.93-28.595l11.264-26.862s-25.131-44.933-76.11-43.41zm245.08 599.71h51.123s-12.13 25.995-33.793 45.058c-21.662 19.063-32.927 14.73-32.927 14.73z" display="inline" opacity="1" fill="#fdfdfd" fill-opacity="1" stroke="none" stroke-width="24" stroke-linecap="square"/>
  <g id="g8" display="inline">
    <path id="path8" d="M973.838 149.092c-5.21.2-10.802.717-16.775 1.637-47.792 7.352-36.836 74.366-89.458 88.23-44.967 11.848-77.203-40.44-77.203-40.44-3.676 73.526 61.273 69.85 100.487 58.82 39.213-11.028 52.693-61.27 64.947-75.976 12.254-14.705 72.3-19.605 72.3-19.605s-17.825-14.074-54.298-12.666zm21.79 32.142c-55.345.827-49.595 67.528-49.595 67.528l24.508 3.677s-1.225-22.058 4.902-39.214c6.128-17.156 25.735-31.862 25.735-31.862a74.14 74.14 0 0 0-5.55-.129zm-63.075 168.014s-6.127 94.358-6.127 120.092c0 25.734 96.808 85.781 96.808 85.781l3.334 103.318c-2.972-.26-31.863-2.89-64.742-10.289-34.66-7.798-68.453-31.195-68.453-31.195l-16.465 44.193s10.398 7.798 45.059 24.262c34.092 16.194 103.878 21.46 106.168 21.63v.034l31.861 1.225s0-154.403-4.902-167.883c-4.902-13.48-85.78-52.694-94.358-74.752-8.578-22.058-4.902-110.289-4.902-110.289ZM726.775 535.387c-8.329-.18-17.864 2.117-27.054 9.93-24.509 20.832-6.127 106.612-67.399 137.247-61.271 30.636-104.162-46.566-104.162-46.566 1.226 47.792 41.666 99.261 121.319 79.654 79.652-19.607 57.595-94.359 66.173-123.77 8.578-29.41 29.41-20.831 29.41-20.831l6.127-28.186s-10.532-7.18-24.414-7.478zm518.262 104.289-28.184 67.398 35.538-1.226 25.734-52.694zm-366.402 24.508s-6.127 11.028-23.283 35.537c-17.156 24.508-55.145 58.82-55.145 58.82l60.045 60.047 31.861-29.41-13.478-20.832s9.802-8.579 22.056-28.186c12.255-19.607 24.51-50.242 24.51-50.242zm77.201-392.138s-15.93 23.283-15.93 40.439 9.803 34.312 9.803 34.312-39.214-7.353-37.988-41.665c1.225-34.312 44.115-33.086 44.115-33.086z" opacity="1" fill="silver" fill-opacity="1" stroke="none" stroke-width="24" stroke-linecap="square"/>
  </g>
  <path id="path1-8" style="-inkscape-stroke:none" d="M967.118 97.716c-4.3.07-8.773.373-13.424.934-36.743 4.433-56.673 20.856-68.295 39.422-11.621 18.565-16.908 37.257-30.306 52.6-5.823 6.667-10.217 8.008-15.467 8.034-5.25.026-11.805-2.215-18.37-5.853-6.564-3.639-12.924-8.433-18.366-12.428-2.722-1.997-5.132-3.783-7.942-5.365-1.405-.791-2.875-1.587-5.224-2.196-2.35-.608-6.526-1.171-10.83 1.448-4.049 2.463-4.89 4.821-5.762 6.677-.873 1.857-1.376 3.543-1.803 5.338-.855 3.592-1.3 7.594-1.383 12.162-.165 9.138 1.197 20.426 5.697 31.963 9.002 23.075 32.957 46.257 75.53 46.112 41.487-.142 65.562-16.851 79.3-36.172 1.03-1.449 1.937-2.9 2.883-4.352.107 8.904.897 15.23.897 15.23l.906 6.305c-20.893 7.297-36.027 27.202-36.027 50.489 0 15.542 6.838 29.95 18.064 39.931l.928 75.924c-1.141 3.347-5.263 16.872-4.234 34.715-34.218-6.773-70.063-2.657-100.8 10.533-7.837 3.364-15.282 7.455-22.36 12.016-17.348-12.03-66.058-39.855-115.477-12.08-29.7 16.693-42.093 40.91-46.361 64.17-4.27 23.259-2.322 45.78-5.577 64.203-2.097 11.875-10.854 19.443-24.586 23.994-13.731 4.55-31.52 4.573-44.957.527-5.165-1.555-13.057-4.171-20.859-5.435-3.901-.632-7.72-1.185-12.68-.057-2.48.564-5.501 1.685-8.216 4.336-2.716 2.65-4.429 6.844-4.614 10.334-.874 16.503 5.959 37.817 20.633 58.088 14.674 20.27 38.313 38.675 70.79 42.23 42.534 4.657 73.277-7.112 93.075-25.675 19.798-18.564 28.616-42.695 32.05-62.172 3.451-19.587 2.932-41.757 5.696-54.979 1.382-6.61 3.616-9.9 4.229-10.355.037-.028.109-.063.15-.094-5.091 48.083 6.21 83.006 10.809 95.045-.374.542-.071.213-.643.98-2.626 3.528-7.21 8.826-14.742 15.102-16.935 14.11-42.404 37.352-42.404 37.352l-5.11 4.66 1.47 6.758s2.312 9.936-.173 28.888c-1.128 8.607-7.194 38.13-12.843 64.244-5.65 26.114-10.963 49.676-10.963 49.676l-3.305 14.64h114.941l-24.74-46.73 28.324-71.7c2.735-1.402 7.026-3.912 13.508-7.657l122.887 127.088h106.19l-123.872-129.4c3.575-4.562 8.14-10.78 14.828-21.051l.026-.04.023-.039c8.723-13.622 16.6-27.751 23.953-42.154 10.781 3.325 23.048 6.298 37.051 8.533 58.887 9.4 127.79 8.768 148.938 8.33 2.97 14.03 6.672 34.655 6.955 53.996.494 33.889 0 109.745 0 109.745l-.082 12.08h111.67l-35.543-52.604c.019-3.532.253-13.78.916-28.572 15.642-3.97 49.295-14.764 78.777-39.654 38.69-32.664 66.813-74.51 66.813-74.51l5.353-7.916-6.516-6.988s-17.455-18.815-41.17-35.051c-16.737-11.46-37.338-18.385-50.271-22.088 3.378-13.989 5.117-28.784 4.021-44.453-4.218-60.37-29.77-90.283-39.398-125.342a106.78 106.78 0 0 1-3.603-21.248c.047.069.082.134.128.203 11.27 16.464 28.43 26.487 36.903 30.748l16.664 56.658 82.976-18.736-8.338-128.195 82.172-91.748c6.139-6.854 5.71-17.523.948-23.778-4.762-6.254-14.93-9.507-23.17-5.414l-99.717 49.526c-12.396-9.8-30.55-20.658-54.338-26.55-28.108-6.96-63.526-6.415-102.31 11.856-34.01 16.022-56.297 35.756-70.524 52.897-.218-1.2-.377-2.396-.639-3.598-2.68-12.292-7.915-23.779-13.945-34.152l1.195-18.518s1.753-27.13 2.026-65.69c.136-19.253-7.647-36.234-20.358-47.896l9.252-21.867-1.623-4.44s-5.794-15.71-21.185-29.427c-13.467-12.003-35.004-22.797-65.1-22.301zm.482 23.945c24.327-.584 38.988 7.66 48.649 16.272 6.974 6.216 10.732 12.17 12.728 15.926l-3.916 9.257c-4.243-1.585-8.72-2.703-13.337-3.464-5.797-1.47-11.877-2.68-18.356-3.1-17.301-1.121-37.25 3.11-51.982 18.797-14.978 15.946-19.949 36.339-30.471 51.137-10.522 14.797-24.084 25.956-59.824 26.078-34.655.118-46.831-14.795-53.088-30.834-2.395-6.138-3.555-12.553-3.924-18.041 4.455 3.248 9.496 6.805 15.543 10.156 8.556 4.742 18.656 8.918 30.125 8.861 11.47-.057 23.86-5.299 33.424-16.25 17.374-19.894 23.452-41.084 32.57-55.65 9.118-14.566 19.302-24.524 50.828-28.328a115.22 115.22 0 0 1 11.031-.817zm32.614 60.854c1.865.035 3.677.174 5.445.389 7.718 1.964 14.882 4.718 19.936 7.308 6.285 4.304 11.059 10.1 13.83 17.385l-53.471-2.97-3.467 12.132 59.461 14.568c-.2 14.493-.508 28.279-.883 37.627-18.155-9.131-48.903-22.394-83.664-29.322-.269-5.687-.267-13.222 1.116-21.734 1.248-7.687 3.644-15.292 7.318-21.01 3.674-5.718 8.167-9.668 15.59-11.785 6.645-1.896 12.946-2.698 18.789-2.588zm-5.535 92.613c5.926 2.192 11.482 4.388 16.627 6.598 3.528 3.464 35.582 35.5 42.101 65.394 4.847 22.226-1.065 46.81-5.305 60.287l-49.378-30.761-2.37-37.893c10.374-14.797 12.774-34.098 5.705-51.164-1.887-4.556-4.427-8.697-7.38-12.46zm-42.047 3.436a29.43 29.43 0 0 1 27.254 18.21 29.427 29.427 0 0 1-6.397 32.147 29.427 29.427 0 0 1-32.146 6.397 29.43 29.43 0 0 1-18.211-27.254c0-16.435 13.065-29.5 29.5-29.5zm437.605 13.134-67.045 74.86a12 12 0 0 0-.02.062 12 12 0 0 0-1.49 4.237 12 12 0 0 0-1.505 4.425 12 12 0 0 0-.02.061l7.334 112.773-41.023 9.264-13.4-45.564-5.12-2.243s-22.304-10.746-31.914-24.787c-11.39-16.641-14.227-28.996-14.227-28.996l-7.779-32.748-14.693 30.283s-5.693 12.297-6.969 31.928l-120.328-12.975c1.679-5.4 3.341-12.137 4.719-19.568a12 12 0 0 0 .586-.736s2.778-10.24 14.455-25.815c11.676-15.573 31.872-35.452 66.447-51.74 33.945-15.991 62.912-16.065 86.314-10.27 23.403 5.796 41.262 17.922 50.516 26.307l6.064 5.496zM973.46 357.181l2.08 33.3 57.643 35.907-7.82 19.06-83.335-29.412-.68-55.773c10.845 2.336 22.037 1.18 32.112-3.082zm82.27 77.478 137.546 14.83c.712 5.195 1.73 10.595 3.283 16.252 7.668 27.923 20.718 48.61 29.635 75.602l-178.199-87.832Zm-116.485 5.848 90.867 32.07c28.956 24.218 51.556 67.105 56.83 77.57-4.73 11.684-17.655 46.842-15.793 81.069 1.212 22.253 13.54 41.488 24.805 55.72a188.979 188.979 0 0 0 8.367 9.84c-16.533.066-39.817-.19-66.33-1.658l-1.95-144.25-5.534-3.47s-15.254-9.567-33.342-22.348c-18.088-12.78-39.134-29.168-49.023-40.412-11.197-12.73-10.651-32.041-8.897-44.13zm-53.527 38.975c11.64.347 23.213 2.187 34.377 5.343 2.456 5.393 5.655 10.694 10.027 15.664 13.066 14.856 34.52 30.968 53.193 44.163 13.616 9.62 23.366 15.955 28.907 19.507l1.746 129.268c-13.932-1.173-27.87-2.626-40.946-4.713-32.58-5.2-54.395-14.454-67.922-22.146-6.438-3.662-10.712-6.722-13.544-8.985 6.523-16.875 9.277-29.36 9.277-29.36a12 12 0 0 0-9.041-14.36 12 12 0 0 0-14.361 9.04s-12.26 50.478-40.954 80.346c-29.85 31.072-76.654 54.553-76.654 54.553l-4.15 2.047-35.733 90.445 11.26 21.27h-45.13c1.908-8.525 3.768-16.703 7.779-35.24 5.676-26.24 11.61-54.215 13.181-66.2 1.736-13.239 1.325-23.342.723-29.777 5.938-5.385 23.47-21.241 37.06-32.565 8.962-7.467 14.88-14.168 18.63-19.205 3.75-5.036 5.675-9.187 5.675-9.187l2.172-4.942-2.258-4.902s-22.075-47.753-7.207-112.289c6.86-29.78 29.964-52.832 60.73-66.035 19.23-8.252 41.238-12.395 63.163-11.74zm-164.32 1.898c20.321.303 38.202 8.848 49.335 15.535-15.586 14.83-27.29 33.236-32.295 54.955-.2.869-.32 1.703-.507 2.567-6.8-.43-13.256.81-18.373 4.615-8.494 6.314-11.5 15.6-13.403 24.705-3.807 18.21-3.077 40.04-5.842 55.725-2.784 15.795-10.107 35.027-24.826 48.828-14.718 13.8-36.867 23.395-74.049 19.324-24.942-2.73-42.305-16.342-53.963-32.445-8.432-11.65-13.188-24.91-15.087-34.157 4.582 1.035 9.982 2.596 14.464 3.946 18.64 5.612 40.267 5.624 59.428-.727 19.162-6.35 36.777-20.574 40.668-42.6 4.029-22.804 2.084-45.17 5.549-64.046 3.465-18.877 10.431-34.045 34.514-47.58 11.542-6.488 23.277-8.81 34.386-8.645zm363.003 16.832 149.116 73.498c.693 4.682 1.283 9.518 1.644 14.69 3.585 51.305-33.922 95.313-46.627 143.08-12.37 46.508-11.402 118.168-11.402 118.168l.025 3.627 14.385 21.289h-42.356c.097-16.518.377-68.503-.057-98.176-.533-36.582-11.416-75.963-11.416-75.963l-.966-3.566-2.805-2.405s-9.422-8.095-19.17-20.412c-9.748-12.317-18.92-28.584-19.658-42.13-1.748-32.126 16.043-75.612 16.043-75.612l2.11-4.908-2.237-4.852s-9.824-21.847-26.63-46.328zm163.461 154.053c11.84 3.544 31.145 10.053 43.932 18.808 14.159 9.695 23.855 18.64 30.148 24.774-9.686 13.05-30.789 39.798-56.55 61.547-21.644 18.272-46.478 27.95-61.788 32.613.299-3.663.699-7.336 1.075-11.045 51.814-16.582 74.345-66.363 74.345-66.363l7.873-17.035h-58.394c6.567-13.427 13.577-27.779 19.36-43.3zm-366.387 27.582c3.313 2.39 7.097 4.93 11.762 7.584 4.618 2.626 10.19 5.327 16.301 8.006-6.643 12.825-13.691 25.435-21.48 37.603-7.728 11.866-12.75 18.531-15.614 21.998-1.433 1.735-2.324 2.67-2.705 3.047-.38.378.42-.289.42-.289l-11.28 8.053 102.153 106.715h-39.81l-104.98-108.57c7.668-7.517 18.674-19.32 29.81-35.676a12 12 0 0 0 1.033-2.053c2.238-2.13 4.563-4.162 6.701-6.387 11.779-12.26 20.722-26.465 27.69-40.031zm335.91 39.717h28.905c-8.068 10.645-20.575 23.776-38.035 32.215 1.01-5.731 2.158-11.182 3.474-16.131 1.374-5.164 3.356-10.543 5.657-16.084z" color="#000" fill="#352f44" fill-rule="evenodd" stroke-linecap="round" fill-opacity="1"/>
</svg>
